Coordinates
version=1
nRows=60
nColumns=12
inDegrees=yes

Units are S.I. units (second, meters, Newtons, ...)
Angles are in degrees

endheader
time	SC_y	SC_z	SC_x	AC_y	AC_z	AC_x	GH_y	GH_z	GH_yy	EL_x	PS_y
       0.0              -30.85          37.68          16.54           67.0         -11.08         -11.56         -134.7          86.04         -74.59          85.13          74.05
   0.03401              -30.85          37.68          16.54          66.99         -11.08         -11.56         -134.7          86.03         -74.58          85.13          74.06
   0.06802              -30.85          37.68          16.54          66.99         -11.08         -11.56         -134.7          86.02         -74.56          85.13          74.07
     0.102              -30.85          37.68          16.54          66.99         -11.08         -11.56         -134.6          86.01         -74.54          85.13          74.08
     0.136              -30.85          37.67          16.53          66.98         -11.08         -11.56         -134.6          85.99         -74.52          85.14           74.1
    0.1701              -30.85          37.67          16.53          66.98         -11.08         -11.56         -134.6          85.98          -74.5          85.14          74.11
    0.2041              -30.85          37.67          16.53          66.97         -11.07         -11.56         -134.6          85.96         -74.48          85.14          74.13
    0.2381              -30.85          37.66          16.53          66.97         -11.07         -11.56         -134.6          85.95         -74.46          85.15          74.14
    0.2721              -30.84          37.66          16.52          66.96         -11.07         -11.56         -134.5          85.93         -74.44          85.15          74.16
    0.3061              -30.84          37.65          16.52          66.96         -11.07         -11.56         -134.5          85.91         -74.41          85.15          74.18
    0.3401              -30.84          37.65          16.52          66.95         -11.07         -11.56         -134.5          85.89         -74.38          85.16           74.2
    0.3741              -30.84          37.64          16.51          66.94         -11.07         -11.56         -134.5          85.87         -74.35          85.16          74.22
    0.4081              -30.84          37.64          16.51          66.93         -11.07         -11.56         -134.4          85.84         -74.32          85.16          74.24
    0.4421              -30.84          37.63           16.5          66.93         -11.07         -11.56         -134.4          85.82         -74.28          85.17          74.27
    0.4761              -30.83          37.62           16.5          66.92         -11.06         -11.56         -134.4          85.79         -74.25          85.17           74.3
    0.5102              -30.83          37.62           16.5          66.91         -11.06         -11.56         -134.3          85.76         -74.21          85.18          74.33
    0.5442              -30.83          37.61          16.49           66.9         -11.06         -11.56         -134.3          85.72         -74.16          85.18          74.36
    0.5782              -30.83           37.6          16.48          66.89         -11.06         -11.56         -134.2          85.69         -74.11          85.19          74.39
    0.6122              -30.82          37.59          16.48          66.87         -11.06         -11.56         -134.2          85.65         -74.06           85.2          74.43
    0.6462              -30.82          37.58          16.47          66.86         -11.05         -11.56         -134.1          85.61          -74.0          85.21          74.47
    0.6802              -30.82          37.57          16.46          66.85         -11.05         -11.56         -134.1          85.56         -73.94          85.21          74.52
    0.7142              -30.81          37.56          16.46          66.83         -11.05         -11.56         -134.0          85.51         -73.87          85.22          74.57
    0.7482              -30.81          37.55          16.45          66.81         -11.04         -11.56         -133.9          85.45         -73.79          85.23          74.63
    0.7822               -30.8          37.53          16.44          66.79         -11.04         -11.56         -133.8          85.39         -73.71          85.24          74.69
    0.8162               -30.8          37.51          16.43          66.77         -11.03         -11.56         -133.7          85.31         -73.61          85.26          74.76
    0.8503              -30.79           37.5          16.41          66.75         -11.03         -11.56         -133.6          85.24          -73.5          85.27          74.83
    0.8843              -30.79          37.48           16.4          66.72         -11.02         -11.56         -133.5          85.15         -73.39          85.29          74.92
    0.9183              -30.78          37.45          16.38          66.69         -11.02         -11.56         -133.4          85.05         -73.25           85.3          75.02
    0.9523              -30.77          37.43          16.37          66.65         -11.01         -11.56         -133.3          84.93          -73.1          85.32          75.13
    0.9863              -30.76           37.4          16.35          66.61          -11.0         -11.56         -133.1          84.81         -72.93          85.35          75.25
      1.02              -30.75          37.36          16.32          66.57          -11.0         -11.56         -132.9          84.66         -72.73          85.37          75.39
     1.054              -30.74          37.32           16.3          66.52         -10.98         -11.56         -132.7          84.49         -72.51           85.4          75.55
     1.088              -30.72          37.28          16.27          66.46         -10.97         -11.56         -132.4           84.3         -72.25          85.44          75.74
     1.122              -30.71          37.23          16.23          66.39         -10.96         -11.56         -132.1          84.07         -71.95          85.47          75.96
     1.156              -30.69          37.17          16.19           66.3         -10.94         -11.56         -131.8          83.81         -71.59          85.52          76.22
      1.19              -30.67          37.09          16.14          66.21         -10.92         -11.55         -131.4           83.5         -71.18          85.58          76.52
     1.224              -30.64          37.01          16.08          66.09          -10.9         -11.55         -130.9          83.13         -70.68          85.64          76.88
     1.258              -30.61          36.91          16.01          65.96         -10.88         -11.55         -130.4          82.69         -70.09          85.72           77.3
     1.292              -30.57          36.78          15.93          65.79         -10.84         -11.55         -129.7          82.16         -69.37          85.81          77.82
     1.326              -30.52          36.63          15.82          65.59          -10.8         -11.55         -128.8           81.5         -68.49          85.93          78.46
      1.36              -30.46          36.45           15.7          65.34         -10.75         -11.55         -127.8           80.7         -67.41          86.07          79.24
     1.394              -30.39          36.21          15.54          65.03         -10.69         -11.54         -126.5          79.69         -66.06          86.24          80.22
     1.428              -30.29          35.92          15.34          64.63         -10.62         -11.54         -124.9          78.43         -64.36          86.47          81.44
     1.462              -30.18          35.55          15.09          64.13         -10.52         -11.54         -122.8          76.82          -62.2          86.75          83.01
     1.496              -30.02          35.07          14.76          63.49         -10.39         -11.53         -120.2          74.76         -59.44          87.11          85.01
      1.53              -29.83          34.46          14.34          62.67         -10.23         -11.52         -116.8          72.12         -55.89          87.58          87.57
     1.564              -29.58          33.68          13.81          61.63         -10.03         -11.51         -112.4          68.74         -51.36          88.17          90.85
     1.598              -29.27          32.69          13.14          60.31         -9.769          -11.5         -107.0           64.5         -45.66          88.92          94.97
     1.632              -28.89          31.49          12.32           58.7         -9.454         -11.48         -100.3          59.32         -38.71          89.83          99.99
     1.666              -28.45          30.11          11.38          56.84          -9.09         -11.47          -92.6          53.33         -30.66          90.88          105.8
     1.701              -27.97           28.6          10.35          54.83         -8.695         -11.45         -84.25          46.84         -21.94          92.02          112.1
     1.735              -27.49           27.1          9.329          52.81           -8.3         -11.43          -75.9          40.35         -13.23          93.16          118.4
     1.769              -27.05          25.71          8.383          50.95         -7.936         -11.41         -68.19          34.35         -5.177          94.22          124.2
     1.803              -26.67          24.51          7.566          49.34         -7.621          -11.4         -61.53          29.18          1.768          95.13          129.3
     1.837              -26.36          23.53          6.897          48.03         -7.363         -11.39         -56.07          24.93          7.468          95.87          133.4
     1.871              -26.11          22.75          6.364          46.98         -7.158         -11.38         -51.73          21.56           12.0          96.47          136.7
     1.905              -25.92          22.13          5.947          46.16         -6.997         -11.37         -48.33          18.92          15.55          96.93          139.2
     1.939              -25.77          21.66          5.622          45.52         -6.872         -11.36         -45.68          16.86          18.31          97.29          141.2
     1.973              -25.65          21.28          5.368          45.02         -6.774         -11.36         -43.61          15.25          20.47          97.58          142.8
     2.007              -25.56          20.99          5.168          44.63         -6.697         -11.35         -41.98          13.98          22.17           97.8          144.0
